<svg width="20" height="20" viewBox="0 0 20 20" fill="none" xmlns="http://www.w3.org/2000/svg">
<path d="M0 2C0 0.895431 0.895431 0 2 0H18C19.1046 0 20 0.895431 20 2V18C20 19.1046 19.1046 20 18 20H2C0.895431 20 0 19.1046 0 18V2Z" fill="white"/>
<path d="M15.2498 4.75843C14.9248 4.43343 14.3998 4.43343 14.0748 4.75843L9.99977 8.8251L5.92477 4.7501C5.59977 4.4251 5.07477 4.4251 4.74977 4.7501C4.42477 5.0751 4.42477 5.6001 4.74977 5.9251L8.82477 10.0001L4.74977 14.0751C4.42477 14.4001 4.42477 14.9251 4.74977 15.2501C5.07477 15.5751 5.59977 15.5751 5.92477 15.2501L9.99977 11.1751L14.0748 15.2501C14.3998 15.5751 14.9248 15.5751 15.2498 15.2501C15.5748 14.9251 15.5748 14.4001 15.2498 14.0751L11.1748 10.0001L15.2498 5.9251C15.5664 5.60843 15.5664 5.0751 15.2498 4.75843Z" fill="#324DFF"/>
</svg>
