<svg width="16" height="16" viewBox="0 0 16 16" fill="none" xmlns="http://www.w3.org/2000/svg">
<path d="M7.99998 1.33325C5.41998 1.33325 3.33331 3.41992 3.33331 5.99992C3.33331 8.77992 6.27998 12.6133 7.49331 14.0733C7.75998 14.3933 8.24665 14.3933 8.51331 14.0733C9.71998 12.6133 12.6666 8.77992 12.6666 5.99992C12.6666 3.41992 10.58 1.33325 7.99998 1.33325ZM7.99998 7.66659C7.07998 7.66659 6.33331 6.91992 6.33331 5.99992C6.33331 5.07992 7.07998 4.33325 7.99998 4.33325C8.91998 4.33325 9.66665 5.07992 9.66665 5.99992C9.66665 6.91992 8.91998 7.66659 7.99998 7.66659Z" fill="#7E899C"/>
</svg>
