<svg width="28" height="28" viewBox="0 0 28 28" fill="none" xmlns="http://www.w3.org/2000/svg">
<rect width="28" height="28" rx="4" fill="#F1F3F5"/>
<path d="M10.7147 10.1345L10.8419 9.5834C10.9313 9.19583 11.4832 9.19583 11.5727 9.5834L11.6999 10.1345C12.0868 11.8113 13.3961 13.1205 15.0728 13.5074L15.6239 13.6346C16.0115 13.7241 16.0115 14.276 15.6239 14.3654L15.0728 14.4926C13.3961 14.8795 12.0868 16.1888 11.6999 17.8655L11.5727 18.4166C11.4832 18.8042 10.9313 18.8042 10.8419 18.4166L10.7147 17.8655C10.3278 16.1888 9.01853 14.8795 7.34182 14.4926L6.79068 14.3654C6.40311 14.276 6.40311 13.7241 6.79068 13.6346L7.34182 13.5074C9.01853 13.1205 10.3278 11.8113 10.7147 10.1345Z" fill="#324DFF"/>
<path d="M18.6003 6.96944L18.6712 6.6621C18.7211 6.44597 19.0289 6.44597 19.0788 6.66209L19.1497 6.96944C19.3655 7.90445 20.0956 8.63454 21.0306 8.85031L21.3379 8.92124C21.554 8.97111 21.554 9.27889 21.3379 9.32876L21.0306 9.39969C20.0956 9.61546 19.3655 10.3456 19.1497 11.2806L19.0788 11.5879C19.0289 11.804 18.7211 11.804 18.6712 11.5879L18.6003 11.2806C18.3845 10.3456 17.6544 9.61546 16.7194 9.39969L16.4121 9.32876C16.196 9.27889 16.196 8.97111 16.4121 8.92124L16.7194 8.85031C17.6544 8.63454 18.3845 7.90445 18.6003 6.96944Z" fill="#324DFF"/>
<path d="M18.6003 16.7194L18.6712 16.4121C18.7211 16.196 19.0289 16.196 19.0788 16.4121L19.1497 16.7194C19.3655 17.6544 20.0956 18.3845 21.0306 18.6003L21.3379 18.6712C21.554 18.7211 21.554 19.0289 21.3379 19.0788L21.0306 19.1497C20.0956 19.3655 19.3655 20.0956 19.1497 21.0306L19.0788 21.3379C19.0289 21.554 18.7211 21.554 18.6712 21.3379L18.6003 21.0306C18.3845 20.0956 17.6544 19.3655 16.7194 19.1497L16.4121 19.0788C16.196 19.0289 16.196 18.7211 16.4121 18.6712L16.7194 18.6003C17.6544 18.3845 18.3845 17.6544 18.6003 16.7194Z" fill="#324DFF"/>
</svg>
