<svg width="110" height="34" viewBox="0 0 110 34" fill="none" xmlns="http://www.w3.org/2000/svg">
<path fill-rule="evenodd" clip-rule="evenodd" d="M101.213 22.8892H98.4928C99.119 22.198 99.6301 21.4232 100.026 20.5654C100.574 19.4115 100.847 18.1585 100.847 16.809C100.847 15.5416 100.599 14.3471 100.1 13.2274C99.6034 12.1112 98.9239 11.1355 98.0619 10.3016C97.216 9.46756 96.2215 8.80943 95.0802 8.32691C93.9356 7.84296 92.717 7.60144 91.4261 7.60144C90.1352 7.60144 88.9167 7.84296 87.772 8.32691C86.6307 8.80943 85.6285 9.46744 84.7667 10.3011L84.7654 10.3023C83.9198 11.1362 83.2487 12.1117 82.7521 13.2274C82.2537 14.3471 82.0049 15.5416 82.0049 16.809C82.0049 18.0763 82.2537 19.2708 82.7521 20.3905C83.2487 21.5062 83.9198 22.4817 84.7654 23.3156L84.7667 23.3168C85.6285 24.1505 86.6307 24.8085 87.772 25.291C88.9167 25.7749 90.1352 26.0165 91.4261 26.0165H101.213V22.8892ZM89.061 11.1607C89.8013 10.828 90.589 10.6613 91.4261 10.6613C92.2632 10.6613 93.0422 10.828 93.7654 11.1602L93.7697 11.162C94.5128 11.4801 95.151 11.9164 95.6863 12.4707L95.6881 12.4726C96.2403 13.028 96.6746 13.6789 96.991 14.4269C97.3063 15.1722 97.4643 15.9657 97.4643 16.809C97.4643 17.6522 97.3063 18.4457 96.991 19.191C96.6746 19.939 96.2403 20.5899 95.6881 21.1453L95.6863 21.1472C95.1505 21.702 94.5116 22.1469 93.7676 22.4814C93.0439 22.7977 92.2641 22.9566 91.4261 22.9566C90.5886 22.9566 89.8006 22.7979 89.0602 22.4814C88.3328 22.147 87.6934 21.702 87.1407 21.1462C86.6045 20.5908 86.178 19.9397 85.8614 19.191C85.5461 18.4457 85.388 17.6522 85.388 16.809C85.388 15.9657 85.5461 15.1722 85.8614 14.4269C86.178 13.6782 86.6046 13.027 87.1407 12.4716C87.6933 11.916 88.3324 11.4794 89.0594 11.1614L89.061 11.1607Z" fill="url(#paint0_linear_181_352)"/>
<path d="M67.5352 7.9939H64.152V26.0165H67.5352V18.2509H75.986V26.0165H79.3693V7.9939H75.986V15.23H67.5352V7.9939Z" fill="url(#paint1_linear_181_352)"/>
<path d="M55.8267 26.0107H59.3681L52.3214 18.5518L58.9608 11.9801H54.9313L49.683 17.2343C49.5084 17.3701 49.3695 17.5377 49.2663 17.7374C49.171 17.929 49.1155 18.1366 49.0996 18.3602C49.0758 18.8392 49.2385 19.2385 49.5878 19.5579L55.8267 26.0107Z" fill="black"/>
<path d="M45.8598 26.0107H48.7859V7.9574H45.8598V26.0107Z" fill="black"/>
<path fill-rule="evenodd" clip-rule="evenodd" d="M28.582 11.9801C29.5736 11.9801 30.5084 12.1682 31.3862 12.5443C32.264 12.9041 33.0281 13.4028 33.6783 14.0406C34.3286 14.6783 34.8406 15.4224 35.2145 16.2727C35.5884 17.1231 35.7754 18.0306 35.7754 18.9954C35.7754 19.9602 35.5884 20.8678 35.2145 21.7182C34.8406 22.5685 34.3286 23.3125 33.6783 23.9503C33.0281 24.588 32.264 25.095 31.3862 25.4711C30.5084 25.8308 29.5736 26.0107 28.582 26.0107C27.5904 26.0107 26.6557 25.8308 25.7778 25.4711C24.9 25.095 24.136 24.588 23.4857 23.9503C22.8355 23.3125 22.3234 22.5685 21.9495 21.7182C21.5756 20.8678 21.3887 19.9602 21.3887 18.9954C21.3887 18.0306 21.5756 17.1231 21.9495 16.2727C22.3234 15.4224 22.8355 14.6783 23.4857 14.0406C24.136 13.4028 24.9 12.9041 25.7778 12.5443C26.6557 12.1682 27.5904 11.9801 28.582 11.9801ZM28.582 23.3616C29.1672 23.3616 29.72 23.2471 30.2402 23.0182C30.7603 22.7892 31.2155 22.4785 31.6057 22.0861C31.9958 21.6936 32.2966 21.2357 32.5079 20.7125C32.7355 20.1728 32.8493 19.6005 32.8493 18.9954C32.8493 18.3904 32.7355 17.8262 32.5079 17.3029C32.2966 16.7633 31.9958 16.2972 31.6057 15.9048C31.2155 15.5123 30.7603 15.2016 30.2402 14.9727C29.72 14.7437 29.1672 14.6293 28.582 14.6293C27.9968 14.6293 27.4441 14.7437 26.9239 14.9727C26.4037 15.2016 25.9485 15.5123 25.5584 15.9048C25.1682 16.2972 24.8594 16.7633 24.6318 17.3029C24.4204 17.8262 24.3148 18.3904 24.3148 18.9954C24.3148 19.6005 24.4204 20.1728 24.6318 20.7125C24.8594 21.2357 25.1682 21.6936 25.5584 22.0861C25.9485 22.4785 26.4037 22.7892 26.9239 23.0182C27.4441 23.2471 27.9968 23.3616 28.582 23.3616Z" fill="black"/>
<path d="M44.0291 14.6293C43.5252 14.6293 43.0456 14.7274 42.5904 14.9236C42.1515 15.1199 41.7695 15.3815 41.4443 15.7086C41.1192 16.0356 40.8591 16.4281 40.664 16.8859C40.469 17.3275 40.3714 17.8017 40.3714 18.3086V26.0107H37.4453V18.5049C37.4453 17.6055 37.616 16.7633 37.9574 15.9784C38.2988 15.1771 38.7621 14.4821 39.3473 13.8934C39.9325 13.3047 40.6153 12.8387 41.3956 12.4953C42.1921 12.1519 43.0375 11.9801 43.9316 11.9801H44.0291V14.6293Z" fill="black"/>
<path d="M15.8469 26.0107L21.1253 11.9801H17.9957L14.866 20.91L11.3695 11.9801H9.7558L6.25936 20.91L3.12968 11.9801H0L5.23531 26.0107H7.19136L10.5627 17.2206L13.8908 26.0107H15.8469Z" fill="black"/>
<path fill-rule="evenodd" clip-rule="evenodd" d="M106.034 6.31172C106.034 4.62375 104.665 3.25539 102.977 3.25539L64.6621 3.25538C64.3423 3.25538 64.1816 2.86913 64.4071 2.64231L66.6431 0.393045C66.7781 0.25726 66.9616 0.180908 67.1531 0.180908L103.337 0.18092C106.514 0.180921 109.09 2.75667 109.09 5.93401V28.0661C109.09 31.2435 106.514 33.8192 103.337 33.8192H50.6279C50.305 33.8192 50.1458 33.4267 50.3774 33.2017L52.6981 30.948C52.8323 30.8177 53.012 30.7448 53.1991 30.7448H102.977C104.665 30.7448 106.034 29.3764 106.034 27.6884V6.31172Z" fill="black"/>
<path fill-rule="evenodd" clip-rule="evenodd" d="M106.034 6.31172C106.034 4.62375 104.665 3.25539 102.977 3.25539L64.6621 3.25538C64.3423 3.25538 64.1816 2.86913 64.4071 2.64231L66.6431 0.393045C66.7781 0.25726 66.9616 0.180908 67.1531 0.180908L103.337 0.18092C106.514 0.180921 109.09 2.75667 109.09 5.93401V28.0661C109.09 31.2435 106.514 33.8192 103.337 33.8192H50.6279C50.305 33.8192 50.1458 33.4267 50.3774 33.2017L52.6981 30.948C52.8323 30.8177 53.012 30.7448 53.1991 30.7448H102.977C104.665 30.7448 106.034 29.3764 106.034 27.6884V6.31172Z" fill="url(#paint2_linear_181_352)"/>
<defs>
<linearGradient id="paint0_linear_181_352" x1="101.213" y1="10.3001" x2="69.7478" y2="39.6592" gradientUnits="userSpaceOnUse">
<stop stop-color="#FF6969"/>
<stop offset="0.517858" stop-color="#5DA9EE"/>
<stop offset="1" stop-color="#566CFF"/>
</linearGradient>
<linearGradient id="paint1_linear_181_352" x1="101.213" y1="10.3001" x2="69.7478" y2="39.6592" gradientUnits="userSpaceOnUse">
<stop stop-color="#FF6969"/>
<stop offset="0.517858" stop-color="#5DA9EE"/>
<stop offset="1" stop-color="#566CFF"/>
</linearGradient>
<linearGradient id="paint2_linear_181_352" x1="106.566" y1="1.60964" x2="67.0008" y2="48.647" gradientUnits="userSpaceOnUse">
<stop stop-color="#FF6969"/>
<stop offset="0.503167" stop-color="#5DA9EE"/>
<stop offset="1" stop-color="#566CFF"/>
</linearGradient>
</defs>
</svg>
